<svg width="128" height="30" viewBox="0 0 128 30" fill="none" xmlns="http://www.w3.org/2000/svg">
<rect y="14.8594" width="19.0022" height="19.0022" transform="rotate(-45 0 14.8594)" fill="#FFD952"/>
<rect x="7.58984" y="15.1406" width="19.0022" height="19.0022" transform="rotate(-45 7.58984 15.1406)" fill="#F6D355" fill-opacity="0.5"/>
<path d="M52.5989 23V19.76H43.0229V6.92H39.4229V23H52.5989ZM57.7439 23.24C60.4079 23.24 62.0879 22.112 62.6399 20.24H62.8319V23H66.1919V15.944C66.1919 12.8 64.2959 10.736 60.2879 10.736C56.3279 10.736 53.8319 12.8 53.8319 15.776V15.848H57.4559V15.752C57.4559 14.384 58.1999 13.904 60.0239 13.904C61.9439 13.904 62.6399 14.336 62.6399 15.896V16.352L57.4799 16.88C54.9119 17.144 53.5919 18.248 53.5919 20.024C53.5919 22.04 55.1519 23.24 57.7439 23.24ZM57.2159 19.784C57.2159 19.208 57.5999 18.968 58.4639 18.896L62.6399 18.416C62.5439 20.12 61.2239 20.696 58.7759 20.696C57.7199 20.696 57.2159 20.432 57.2159 19.784ZM71.6166 23V16.928C71.6166 14.888 72.4326 13.976 74.7126 13.976C76.9206 13.976 77.7126 14.792 77.7126 16.712V23H81.3126V15.512C81.3126 12.848 79.7526 10.736 76.4646 10.736C73.3206 10.736 71.8806 12.656 71.5686 14.672H71.3526V10.976H68.0166V23H71.6166ZM88.5098 23.24C91.2698 23.24 92.8538 22.04 93.3098 19.664H93.5018V23H96.8618V6.92H93.2618V14.168H93.0458C92.6378 12.152 91.1738 10.736 88.3178 10.736C84.7418 10.736 82.7018 13.16 82.7018 17C82.7018 20.792 84.7658 23.24 88.5098 23.24ZM86.3498 17C86.3498 14.792 87.4298 14.024 89.7338 14.024C92.0378 14.024 93.2618 14.792 93.2618 16.88V17.072C93.2618 19.16 92.0138 19.952 89.7338 19.952C87.4298 19.952 86.3498 19.184 86.3498 17ZM105.151 23.24C108.967 23.24 111.511 21.416 111.511 18.8V18.536H107.911V18.776C107.911 19.808 107.167 20.36 105.031 20.36C102.703 20.36 101.839 19.568 101.743 17.72H111.535C111.583 17.312 111.631 17 111.631 16.568C111.631 12.8 109.015 10.736 105.079 10.736C101.119 10.736 98.4066 13.16 98.4066 17C98.4066 21.272 101.143 23.24 105.151 23.24ZM105.007 13.544C107.119 13.544 108.079 14.24 108.175 15.824H101.791C101.959 14.264 102.871 13.544 105.007 13.544ZM116.445 23L119.541 18.968H119.733L122.925 23H127.317L122.517 17.072V16.856L127.317 10.976H122.973L119.877 15.032H119.685L116.493 10.976H112.101L116.901 16.928V17.12L112.101 23H116.445Z" fill="white"/>
</svg>
